<svg xmlns="http://www.w3.org/2000/svg" width="22.67" height="24.67" viewBox="0 0 34 37"><g><g><g><path fill="#bdbdc3" d="M14.697 19.917c5.304 0 9.606-4.303 9.606-9.602 0-5.308-4.301-9.612-9.606-9.612-5.307 0-9.603 4.305-9.603 9.612 0 5.299 4.295 9.602 9.603 9.602z"/></g><g><path fill="#bdbdc3" d="M26.838 22.553a16.628 16.628 0 0 0-1.963-3.221c-.439-.559-1.24-1.172-2.014-1.592-2.008 2.25-4.92 3.675-8.164 3.675-3.242 0-6.152-1.425-8.158-3.67-.757.43-1.537 1.043-1.961 1.6-1.378 1.799-3.505 5.284-3.844 9.98-.07.991.4 2.505 1.229 3.082 1.57 1.1 4.962 2.508 12.02 2.508 2.445 0 4.504-.151 6.245-.386a7.88 7.88 0 0 1-1.114-4.037c0-4.308 3.445-7.818 7.724-7.939z"/></g><g><path fill="#bdbdc3" d="M30.015 31.675h-2.483v2.483a.746.746 0 0 1-1.49 0v-2.482l-2.482-.001a.744.744 0 0 1 0-1.488h2.483v-2.483a.744.744 0 1 1 1.489.001v2.482h2.482a.744.744 0 1 1 .001 1.488zm-3.177-7.62a6.437 6.437 0 1 0 .001 12.873 6.437 6.437 0 0 0-.001-12.873z"/></g></g></g></svg>