<svg xmlns="http://www.w3.org/2000/svg" width="36.67" height="36.67" viewBox="0 0 55 55"><g><g><path fill="#d7e8fb" d="M55 27.5C55 42.688 42.687 55 27.5 55 12.312 55 0 42.688 0 27.5S12.312 0 27.5 0C42.687 0 55 12.312 55 27.5z"/></g><g><path fill="#1e87ff" d="M38.143 21.13a1.385 1.385 0 0 0-.5-.937l-2.14-1.757a1.386 1.386 0 0 0-1.95.19l-8.997 10.95-3.615-3.096a1.387 1.387 0 0 0-1.953.15l-1.803 2.104c-.241.28-.358.637-.33 1.006.029.369.199.705.48.946l6.836 5.859a1.377 1.377 0 0 0 1.023.328c.374-.033.71-.212.949-.501l11.69-14.228c.237-.285.346-.647.31-1.014z"/></g></g></svg>