<svg xmlns="http://www.w3.org/2000/svg" width="18" height="18" viewBox="0 0 27 27"><g><g><path fill="#dbeaff" d="M23.473 10.176l-1.619-4.29A11.42 11.42 0 0 0 13.045.589c-.282-.02-.604.199-.89.199-6.31 0-10.928 4.885-10.928 11.195 0 6.309 4.654 10.83 10.963 10.83 5.172 0 9.183-2.87 10.591-7.584.075-.25.5-.477.557-.735a11.468 11.468 0 0 0 .135-4.317z"/></g><g><path fill="#c3ddff" d="M21.076 14.097a6.77 6.77 0 0 0-6.759 7.13c.035.595-.408 1.117-1.002 1.12h-.067c-6.31 0-11.424-5.113-11.424-11.423a11.456 11.456 0 0 1 .244-2.36 5.546 5.546 0 0 0-.657.02c-.218.477-.344.782-.344.782a11.434 11.434 0 0 0-.3 2.616c0 6.309 5.114 11.425 11.423 11.425a11.405 11.405 0 0 0 2.865-.374 11.432 11.432 0 0 0 8.282-8.54 6.775 6.775 0 0 0-2.26-.396z"/></g><g><path fill="#1e87ff" d="M6.977 18.12c.312-.886 1.743-1.188 3.196-.677 1.453.512 2.379 1.644 2.068 2.53-.312.884-1.743 1.187-3.197.675-1.453-.51-2.38-1.643-2.067-2.529z"/></g><g><path fill="#1e87ff" d="M27 20.867a5.901 5.901 0 0 1-1.059 3.381c-1.07 1.537-2.85 2.261-4.865 2.261-3.271 0-5.54-2.37-5.54-5.642 0-2.014.621-3.792 2.156-4.862A5.924 5.924 0 0 1 27 20.867z"/></g><g><path fill="#1e87ff" d="M22.557 25.31a5.924 5.924 0 0 1-4.865-9.305 5.924 5.924 0 1 0 8.249 8.243 5.905 5.905 0 0 1-3.384 1.062z"/></g><g><path fill="#fff" d="M21.076 15.79a5.078 5.078 0 1 1 0 10.155 5.078 5.078 0 0 1 0-10.156z"/></g><g><path fill="#edf4ff" d="M21.076 16.636a4.231 4.231 0 1 1 0 8.462 4.231 4.231 0 0 1 0-8.462z"/></g><g><path fill="#1e87ff" d="M24.35 19.33l-3.16 1.053-2.478-2.478a.423.423 0 1 0-.598.6l2.663 2.661a.42.42 0 0 0 .433.102l3.407-1.135a.423.423 0 0 0-.268-.803z"/></g><g><path fill="#a4ccff" d="M21.076 20.02a.847.847 0 1 1 0 1.694.847.847 0 0 1 0-1.694z"/></g><g><path fill="#1e87ff" d="M15.045 6.026c-.845-.568-1.55-.868-2.167-1.644-.994-1.25-.687-2.813.167-3.794A11.375 11.375 0 0 0 4.616 3.43C2.882 4.97 1.979 7.635 1.705 8.695l.314.117c2.192-.886 5.064.236 5.464 3.116.547 3.932 4.84 4.073 7.114 2.62 2.892-1.852 3.14-6.71.448-8.522z"/></g><g><path fill="#1e87ff" d="M1.067 9.365c.292-.229.617-.417.951-.553A11.383 11.383 0 0 1 4.615 3.43c-1.736 1.54-3 3.6-3.548 5.935z"/></g><g><path fill="#1e87ff" d="M23.473 10.176a11.327 11.327 0 0 0-1.619-4.29 3.812 3.812 0 0 0-1.212.816c-1.17 1.172-1.41 2.832-.534 3.708.794.794 2.231.666 3.365-.234z"/></g></g></svg>