<svg xmlns="http://www.w3.org/2000/svg" width="21.33" height="15.33" viewBox="0 0 32 23"><g><g><path fill="#fff" d="M24.013 10.246c0 5.543-5.838 9.202-11.709 9.203a14.66 14.66 0 0 1-3.393-.393.256.256 0 0 0-.24.066c-1.784 1.754-4.67 2.457-7.162 2.52h-.017a.659.659 0 0 1-.59-.363.657.657 0 0 1 .068-.705c.508-.656 1.75-2.39 2.273-4.308a.25.25 0 0 0-.064-.246C1.512 14.393.594 12.343.594 10.247c0-5.542 5.835-9.203 11.71-9.203 5.85 0 11.71 3.644 11.71 9.203zM9.116 18.19c1.03.244 2.102.367 3.188.367 5.964 0 10.817-3.727 10.817-8.31s-4.853-8.31-10.817-8.31c-5.966 0-10.819 3.727-10.819 8.31 0 1.881.801 3.656 2.317 5.134.295.288.411.717.301 1.12-.48 1.76-1.505 3.358-2.135 4.227 1.38-.088 4.294-.487 6.078-2.242a1.14 1.14 0 0 1 1.07-.296z"/></g><g><path fill="none" stroke="#fff" stroke-miterlimit="20" stroke-width=".5" d="M24.013 10.246c0 5.543-5.838 9.202-11.709 9.203a14.66 14.66 0 0 1-3.393-.393.256.256 0 0 0-.24.066c-1.784 1.754-4.67 2.457-7.162 2.52h-.017a.659.659 0 0 1-.59-.363.657.657 0 0 1 .068-.705c.508-.656 1.75-2.39 2.273-4.308a.25.25 0 0 0-.064-.246C1.512 14.393.594 12.343.594 10.247c0-5.542 5.835-9.203 11.71-9.203 5.85 0 11.71 3.644 11.71 9.203zM9.116 18.19c1.03.244 2.102.367 3.188.367 5.964 0 10.817-3.727 10.817-8.31s-4.853-8.31-10.817-8.31c-5.966 0-10.819 3.727-10.819 8.31 0 1.881.801 3.656 2.317 5.134.295.288.411.717.301 1.12-.48 1.76-1.505 3.358-2.135 4.227 1.38-.088 4.294-.487 6.078-2.242a1.14 1.14 0 0 1 1.07-.296z"/></g><g><path fill="#fff" d="M26.88 17.655c2.6-1.314 4.153-3.554 4.153-5.99 0-3.445-3.113-6.387-7.403-6.998a.446.446 0 1 0-.125.883c3.845.547 6.637 3.12 6.637 6.115 0 2.094-1.37 4.035-3.663 5.194a1.103 1.103 0 0 0-.581 1.212c.217 1.021.68 1.968 1.05 2.608-2.632-.438-3.63-1.7-3.946-2.248a1.1 1.1 0 0 0-.953-.547H22.013c-.494 0-.99-.034-1.471-.102a.447.447 0 0 0-.124.884c.523.073 1.06.11 1.595.11h.037c.075 0 .144.038.18.101 1.207 2.092 3.983 2.627 5.12 2.76a.64.64 0 0 0 .625-.3.642.642 0 0 0-.004-.693c-.343-.533-.954-1.6-1.2-2.759a.209.209 0 0 1 .11-.23z"/></g><g><path fill="none" stroke="#fff" stroke-miterlimit="20" stroke-width=".5" d="M26.88 17.655c2.6-1.314 4.153-3.554 4.153-5.99 0-3.445-3.113-6.387-7.403-6.998a.446.446 0 1 0-.125.883c3.845.547 6.637 3.12 6.637 6.115 0 2.094-1.37 4.035-3.663 5.194a1.103 1.103 0 0 0-.581 1.212c.217 1.021.68 1.968 1.05 2.608-2.632-.438-3.63-1.7-3.946-2.248a1.1 1.1 0 0 0-.953-.547h-.003v0h-.033c-.494 0-.99-.034-1.471-.102a.447.447 0 0 0-.124.884c.523.073 1.06.11 1.595.11h.037c.075 0 .144.038.18.101 1.207 2.092 3.983 2.627 5.12 2.76a.64.64 0 0 0 .625-.3.642.642 0 0 0-.004-.693c-.343-.533-.954-1.6-1.2-2.759a.209.209 0 0 1 .11-.23z"/></g><g><path fill="#fff" d="M5.365 8.652a1.547 1.547 0 0 1 0 3.09 1.548 1.548 0 0 1-1.546-1.545c0-.852.693-1.545 1.546-1.545zm0 2.199a.655.655 0 0 0 0-1.308.655.655 0 0 0 0 1.308z"/></g><g><path fill="none" stroke="#fff" stroke-miterlimit="20" stroke-width=".5" d="M5.365 8.652a1.547 1.547 0 0 1 0 3.09 1.548 1.548 0 0 1-1.546-1.545c0-.852.693-1.545 1.546-1.545zm0 2.199a.655.655 0 0 0 0-1.308.655.655 0 0 0 0 1.308z"/></g><g><path fill="#fff" d="M9.773 8.652a1.546 1.546 0 1 1-.002 3.092 1.546 1.546 0 0 1 .002-3.092zm0 2.199a.655.655 0 0 0 0-1.308.654.654 0 0 0 0 1.308z"/></g><g><path fill="none" stroke="#fff" stroke-miterlimit="20" stroke-width=".5" d="M9.773 8.652a1.546 1.546 0 1 1-.002 3.092 1.546 1.546 0 0 1 .002-3.092zm0 2.199a.655.655 0 0 0 0-1.308.654.654 0 0 0 0 1.308z"/></g><g><path fill="#fff" d="M14.182 8.652c.853 0 1.546.693 1.546 1.545s-.693 1.546-1.546 1.546a1.547 1.547 0 0 1 0-3.091zm0 2.199a.655.655 0 0 0 0-1.308.654.654 0 0 0 0 1.308z"/></g><g><path fill="none" stroke="#fff" stroke-miterlimit="20" stroke-width=".5" d="M14.182 8.652c.853 0 1.546.693 1.546 1.545s-.693 1.546-1.546 1.546a1.547 1.547 0 0 1 0-3.091zm0 2.199a.655.655 0 0 0 0-1.308.654.654 0 0 0 0 1.308z"/></g><g><path fill="#fff" d="M18.59 8.652a1.547 1.547 0 0 1 0 3.09 1.548 1.548 0 0 1-1.545-1.545c0-.852.693-1.545 1.546-1.545zm0 2.199a.655.655 0 0 0 0-1.308.654.654 0 0 0 0 1.308z"/></g><g><path fill="none" stroke="#fff" stroke-miterlimit="20" stroke-width=".5" d="M18.59 8.652a1.547 1.547 0 0 1 0 3.09 1.548 1.548 0 0 1-1.545-1.545c0-.852.693-1.545 1.546-1.545zm0 2.199a.655.655 0 0 0 0-1.308.654.654 0 0 0 0 1.308z"/></g></g></svg>