<svg xmlns="http://www.w3.org/2000/svg" width="36" height="34" viewBox="0 0 54 51"><g><g><path fill="#d7e8fb" d="M.191 6.494h53.81v40.82a3.711 3.711 0 0 1-3.712 3.711H3.902a3.71 3.71 0 0 1-3.71-3.71z"/></g><g><path fill="#1e87ff" d="M.191 6.494H54v12.988H.191z"/></g><g><path fill="#e6e6e6" d="M9.469 12.988a6.493 6.493 0 0 1-6.494-6.494A6.493 6.493 0 0 1 9.469 0a6.493 6.493 0 0 1 6.494 6.494.927.927 0 1 1-1.855 0 4.64 4.64 0 1 0-4.64 4.64.927.927 0 1 1 0 1.854z"/></g><g><path fill="#e6e6e6" d="M27.096 12.988a6.493 6.493 0 0 1-6.494-6.494A6.493 6.493 0 0 1 27.096 0a6.493 6.493 0 0 1 6.494 6.494.927.927 0 1 1-1.855 0 4.64 4.64 0 1 0-4.64 4.64.927.927 0 1 1 0 1.854z"/></g><g><path fill="#e6e6e6" d="M44.723 12.988a6.493 6.493 0 0 1-6.494-6.494A6.493 6.493 0 0 1 44.723 0a6.493 6.493 0 0 1 6.494 6.494.927.927 0 1 1-1.855 0 4.64 4.64 0 1 0-4.64 4.64.927.927 0 1 1 0 1.854z"/></g><g><path fill="#1e87ff" d="M24.313 23.193h5.566v5.566h-5.566z"/></g><g><path fill="#1e87ff" d="M33.59 23.193h5.566v5.566H33.59z"/></g><g><path fill="#1e87ff" d="M42.867 23.193h5.566v5.566h-5.566z"/></g><g><path fill="#1e87ff" d="M15.035 23.193h5.566v5.566h-5.566z"/></g><g><path fill="#1e87ff" d="M5.758 23.193h5.566v5.566H5.758z"/></g><g><path fill="#1e87ff" d="M33.59 32.471h5.566v5.566H33.59z"/></g><g><path fill="#1e87ff" d="M42.867 32.471h5.566v5.566h-5.566z"/></g><g><path fill="#1e87ff" d="M15.035 32.471h5.566v5.566h-5.566z"/></g><g><path fill="#1e87ff" d="M5.758 32.471h5.566v5.566H5.758z"/></g><g><path fill="#1e87ff" d="M24.313 41.748h5.566v5.566h-5.566z"/></g><g><path fill="#1e87ff" d="M33.59 41.748h5.566v5.566H33.59z"/></g><g><path fill="#1e87ff" d="M42.867 41.748h5.566v5.566h-5.566z"/></g><g><path fill="#1e87ff" d="M15.035 41.748h5.566v5.566h-5.566z"/></g><g><path fill="#1e87ff" d="M5.758 41.748h5.566v5.566H5.758z"/></g><g><path fill="#ed1c24" d="M26.168 38.965c-.31 0-.6-.155-.771-.413l-1.856-2.783a.926.926 0 0 1 .257-1.286.926.926 0 0 1 1.286.256l1.084 1.628 2.939-4.408a.928.928 0 1 1 1.543 1.029l-3.711 5.567a.922.922 0 0 1-.771.41z"/></g><g><path fill="#fff" d="M29.879 14.844h19.482v1.855H29.879z"/></g></g></svg>