<svg xmlns="http://www.w3.org/2000/svg" width="14" height="14" viewBox="0 0 21 21"><g><g><path fill="#7c8d96" d="M16.565 10.68a.692.692 0 0 0-.69.693v6.915c0 .382-.31.692-.693.692H2.735a.691.691 0 0 1-.69-.692V4.458c0-.382.308-.692.69-.692h8.298a.691.691 0 0 0 0-1.383H2.735A2.074 2.074 0 0 0 .661 4.458v13.83c0 1.146.928 2.075 2.074 2.075h12.447a2.074 2.074 0 0 0 2.074-2.075v-6.915a.692.692 0 0 0-.69-.692z"/></g><g><path fill="none" stroke="#7c8d96" stroke-miterlimit="20" stroke-width=".35" d="M16.565 10.68a.692.692 0 0 0-.69.693v6.915c0 .382-.31.692-.693.692H2.735a.691.691 0 0 1-.69-.692V4.458c0-.382.308-.692.69-.692h8.298a.691.691 0 0 0 0-1.383H2.735A2.074 2.074 0 0 0 .661 4.458v13.83c0 1.146.928 2.075 2.074 2.075h12.447a2.074 2.074 0 0 0 2.074-2.075v-6.915a.692.692 0 0 0-.69-.692z"/></g><g><path fill="#7c8d96" d="M19.248 1.775a2.65 2.65 0 0 1 0 3.745l-9.109 9.108a.697.697 0 0 1-.27.167l-4.15 1.383a.702.702 0 0 1-.436 0 .692.692 0 0 1-.438-.875l1.384-4.149a.709.709 0 0 1 .167-.27l9.108-9.108a2.65 2.65 0 0 1 3.745-.001zm-.978 2.767a1.26 1.26 0 0 0 0-1.784 1.265 1.265 0 0 0-1.789-.001l-8.993 8.989-.894 2.683 2.686-.898z"/></g><g><path fill="none" stroke="#7c8d96" stroke-miterlimit="20" stroke-width=".35" d="M19.248 1.775a2.65 2.65 0 0 1 0 3.745l-9.109 9.108a.697.697 0 0 1-.27.167l-4.15 1.383a.702.702 0 0 1-.436 0 .692.692 0 0 1-.438-.875l1.384-4.149a.709.709 0 0 1 .167-.27l9.108-9.108a2.65 2.65 0 0 1 3.745-.001zm-.978 2.767a1.26 1.26 0 0 0 0-1.784 1.265 1.265 0 0 0-1.789-.001l-8.993 8.989-.894 2.683 2.686-.898z"/></g></g></svg>