<svg xmlns="http://www.w3.org/2000/svg" width="38" height="38" viewBox="0 0 57 57"><g><g><path fill="#1e87ff" d="M44.959 38.411l-6.308-3.942a.973.973 0 0 0-1.203.136l-2.236 2.237a2.907 2.907 0 0 1-2.527.82 16.139 16.139 0 0 1-8.623-4.725 16.143 16.143 0 0 1-4.724-8.623 2.903 2.903 0 0 1 .819-2.527l2.236-2.236a.973.973 0 0 0 .137-1.203l-3.936-6.307a.976.976 0 0 0-1.26-.355l-6.339 3.17a.965.965 0 0 0-.532.973c.621 5.13 2.933 12.816 10.415 20.3 7.482 7.482 15.167 9.794 20.3 10.415a.973.973 0 0 0 .972-.532l3.169-6.34a.97.97 0 0 0-.36-1.26z"/></g><g><path fill="#d7e8fb" d="M26.517.093a28.196 28.196 0 1 1-11.764 52.551 1.963 1.963 0 0 0-1.563-.184L2.558 55.782a.972.972 0 0 1-1.192-1.288l3.781-9.45a1.964 1.964 0 0 0-.18-1.783A28.194 28.194 0 0 1 26.516.093zm2.285 2.826a.971.971 0 1 0 0 1.942.971.971 0 0 0 0-1.942zm18.25 37.62a2.903 2.903 0 0 0-1.064-3.775L39.68 32.82a2.903 2.903 0 0 0-3.607.412l-2.237 2.236a.952.952 0 0 1-.829.275 14.17 14.17 0 0 1-7.569-4.18 14.171 14.171 0 0 1-4.18-7.57.96.96 0 0 1 .274-.83l2.236-2.235a2.902 2.902 0 0 0 .411-3.609l-3.942-6.307a2.903 2.903 0 0 0-3.778-1.065l-6.339 3.17a2.917 2.917 0 0 0-1.594 2.944c.66 5.434 3.097 13.565 10.973 21.44 7.874 7.875 16.005 10.312 21.44 10.972a2.903 2.903 0 0 0 2.943-1.593zm.26-28.125a.971.971 0 0 0 .054-1.379 25.451 25.451 0 0 0-14.57-7.8.97.97 0 0 0-1.063 1.306.97.97 0 0 0 .755.614 23.492 23.492 0 0 1 13.45 7.204.972.972 0 0 0 1.373.055z"/></g></g></svg>