<svg xmlns="http://www.w3.org/2000/svg" width="79" height="14" viewBox="0 0 79 14"><g><g><path fill="#3c8bd9" d="M4.373 1.665c.122-.32.29-.615.54-.854a2.11 2.11 0 0 1 3.318.493c.509.925 1.048 1.83 1.57 2.745.875 1.519 1.76 3.039 2.624 4.564.727 1.276-.061 2.886-1.505 3.105-.884.133-1.713-.274-2.17-1.067-.767-1.337-1.54-2.674-2.307-4.005-.016-.031-.036-.056-.056-.082-.082-.066-.117-.162-.168-.249-.341-.599-.691-1.194-1.032-1.789-.218-.386-.447-.767-.666-1.153a2.11 2.11 0 0 1-.28-1.119c.016-.203.04-.406.133-.589z"/></g><g><path fill="#fabc04" d="M4.373 1.665a2.892 2.892 0 0 0-.096.559 2.19 2.19 0 0 0 .304 1.194c.56.961 1.12 1.927 1.673 2.893.05.086.092.172.143.253-.305.529-.61 1.053-.92 1.581-.427.737-.854 1.479-1.286 2.216-.02 0-.025-.01-.03-.025-.006-.041.01-.076.02-.117.207-.762.035-1.438-.489-2.018a1.94 1.94 0 0 0-1.194-.615c-.61-.087-1.149.071-1.632.453-.086.065-.142.162-.244.213-.02 0-.03-.01-.036-.025.245-.422.483-.844.727-1.266 1.007-1.749 2.013-3.497 3.024-5.24.011-.02.026-.036.036-.056z"/></g><g><path fill="#34a852" d="M.607 8.242c.096-.086.188-.178.29-.26 1.235-.975 3.09-.268 3.36 1.277a2.23 2.23 0 0 1-.082 1.082.546.546 0 0 1-.02.087c-.046.08-.087.168-.138.249-.452.747-1.118 1.118-1.992 1.062A2.087 2.087 0 0 1 .1 9.919c-.066-.483.03-.935.28-1.352.05-.091.111-.173.167-.264.025-.02.015-.061.061-.061z"/></g><g><path fill="#fabc04" d="M.607 8.242c-.02.02-.02.056-.056.06-.005-.035.015-.055.035-.08l.021.02z"/></g><g><path fill="#8b8d97" d="M23.162.786c1.502 0 2.568.605 3.367 1.381l-.945.944c-.557-.557-1.356-.969-2.422-.969-1.986 0-3.536 1.6-3.536 3.561 0 1.962 1.55 3.56 3.535 3.56 1.284 0 2.035-.533 2.495-.993.388-.388.63-.945.728-1.695h-3.222V5.242h4.529c.049.242.073.533.073.848 0 .993-.266 2.228-1.162 3.124-.872.897-1.962 1.381-3.44 1.381-2.737 0-5.013-2.18-5.013-4.892 0-2.713 2.275-4.917 5.012-4.917zm8.21 3.512c1.72 0 3.15 1.356 3.15 3.197 0 1.84-1.406 3.197-3.15 3.197s-3.149-1.357-3.149-3.197c0-1.865 1.43-3.197 3.15-3.197zm0 5.135c.945 0 1.768-.8 1.768-1.938 0-1.162-.823-1.938-1.768-1.938-.945 0-1.768.8-1.768 1.938s.823 1.938 1.768 1.938zm6.83-5.135c1.745 0 3.15 1.356 3.15 3.197 0 1.84-1.43 3.197-3.15 3.197-1.743 0-3.148-1.357-3.148-3.197 0-1.865 1.404-3.197 3.148-3.197zm0 5.135c.97 0 1.769-.8 1.769-1.938 0-1.162-.823-1.938-1.768-1.938-.945 0-1.769.8-1.769 1.938s.825 1.938 1.769 1.938zm6.806-5.135c.751 0 1.332.34 1.647.726h.05v-.508h1.306v5.668c0 2.324-1.356 3.294-2.979 3.294-1.524 0-2.445-1.018-2.784-1.866l1.21-.508c.219.508.728 1.114 1.575 1.114 1.041 0 1.671-.654 1.671-1.865v-.46h-.049c-.315.387-.896.726-1.647.726-1.574 0-3.003-1.38-3.003-3.148 0-1.793 1.43-3.173 3.003-3.173zm.121 5.086c.946 0 1.673-.799 1.673-1.913 0-1.115-.728-1.938-1.673-1.938-.943 0-1.743.823-1.743 1.938 0 1.114.8 1.913 1.743 1.913zm8.986-5.086c1.647 0 2.471 1.332 2.737 2.035l.146.363-4.287 1.768c.315.654.824.97 1.55.97.702 0 1.21-.34 1.574-.873l1.09.726a3.167 3.167 0 0 1-2.664 1.405c-1.816 0-3.172-1.405-3.172-3.197 0-1.913 1.38-3.197 3.027-3.197zM49.03 1.173h1.381v9.35h-1.38zm6.297 5.038c-.144-.412-.628-.678-1.186-.678-.702 0-1.72.63-1.671 1.865z"/></g><g><path fill="#8b8d97" d="M59.42 10.378l3.197-8.502h1.236l3.197 8.502h-1.211l-.824-2.301h-3.56l-.824 2.3zm2.398-3.318h2.834L63.27 3.233h-.048z"/></g><g><path fill="#8b8d97" d="M67.364 7.471c0-.848.267-1.574.8-2.204.557-.605 1.187-.896 1.962-.896.435 0 .823.097 1.162.266.364.194.63.412.824.727h.048l-.048-.8V1.876H73.2v8.501H72.16v-.799h-.048c-.194.291-.46.533-.824.727-.363.193-.751.266-1.162.266-.775 0-1.43-.29-1.962-.896-.533-.605-.8-1.332-.8-2.204zm4.772 0c0-.605-.17-1.114-.533-1.502-.34-.387-.775-.58-1.308-.58s-.97.193-1.308.58c-.363.388-.533.897-.533 1.502 0 .606.17 1.114.533 1.502.364.387.8.581 1.308.581.533.024.969-.169 1.308-.557.363-.388.533-.896.533-1.526z"/></g><g><path fill="#8b8d97" d="M78.24 10.039c-.437.339-.994.533-1.672.533-.58 0-1.09-.145-1.55-.46a2.6 2.6 0 0 1-.945-1.211l.97-.412c.144.339.338.63.63.823.265.194.58.29.895.29.34 0 .63-.072.872-.217.242-.145.34-.34.34-.533 0-.363-.292-.654-.849-.823l-.993-.242c-1.138-.291-1.696-.824-1.696-1.647 0-.534.22-.945.655-1.284.436-.315.992-.484 1.647-.484.508 0 .968.12 1.404.363.412.242.703.58.872.992l-.969.413a1.368 1.368 0 0 0-.532-.582 1.642 1.642 0 0 0-.848-.218c-.29 0-.533.073-.775.218-.218.146-.339.315-.339.533 0 .339.315.58.945.702l.871.218c1.163.29 1.72.872 1.72 1.744.024.509-.218.945-.654 1.284z"/></g></g></svg>