<svg xmlns="http://www.w3.org/2000/svg" width="34" height="34" viewBox="0 0 34 34"><g><g><path fill="#2196f3" d="M17.351.17c9.194 0 16.65 7.455 16.65 16.649 0 9.195-7.456 16.649-16.65 16.649-9.195 0-16.648-7.455-16.648-16.65C.703 7.626 8.156.172 17.351.172zm-4.51 16.188a4.236 4.236 0 0 0 4.231 4.23 4.235 4.235 0 0 0 4.23-4.23v-5.082a4.235 4.235 0 0 0-4.23-4.23 4.235 4.235 0 0 0-4.23 4.23zm11.101.16v-2.414h-1.727v2.414a5.15 5.15 0 0 1-5.143 5.142 5.148 5.148 0 0 1-5.143-5.142v-2.414h-1.727v2.414c0 3.477 2.596 6.356 5.952 6.807v2.335h-1.42v1.727H19.3V25.66h-1.42v-2.321c3.408-.402 6.061-3.307 6.061-6.821z"/></g><g><path fill="#2196f3" d="M17.072 18.86a2.506 2.506 0 0 0 2.503-2.503v-1.442H14.57v1.442a2.506 2.506 0 0 0 2.503 2.503z"/></g></g></svg>