<svg xmlns="http://www.w3.org/2000/svg" width="15" height="15" viewBox="0 0 15 15"><g><g><path fill="#fff" d="M7.598 7.734L13 7.216a.174.174 0 0 0 .107-.297l-.818-.817a.35.35 0 0 1 0-.494L14.897 3a.348.348 0 0 0 0-.494l-2.45-2.45a.348.348 0 0 0-.495 0L9.344 2.662a.351.351 0 0 1-.495 0l-.817-.818a.175.175 0 0 0-.297.107l-.518 5.401a.35.35 0 0 0 .381.381z"/></g><g><path fill="#fff" d="M9.535 11.11a.79.79 0 0 1-1.12 0L3.845 6.536a.79.79 0 0 1 0-1.118l.455-.455-2.673-2.67C-.85 5.1 1.273 8.405 3.91 11.043c2.65 2.65 5.95 4.752 8.752 2.283l-2.673-2.673-.454.455z"/></g><g><path fill="#fff" d="M3.431.87l2.28 2.28a.284.284 0 0 1 0 .402l-.806.806-.006.006-2.682-2.682L3.03.87a.283.283 0 0 1 .401 0z"/></g><g><path fill="#fff" d="M14.085 11.922l-.813.813-2.681-2.68.812-.813a.283.283 0 0 1 .4 0l2.281 2.28c.11.11.11.29 0 .4z"/></g></g></svg>