<svg xmlns="http://www.w3.org/2000/svg" width="20" height="21" viewBox="0 0 20 21"><g><g><path fill="#b3b3b3" d="M18.298 11.655a2.369 2.369 0 0 1 .008 3.359l-4.11 4.11a2.372 2.372 0 0 1-1.68.694 2.354 2.354 0 0 1-1.678-.694L3.743 12.03a1.986 1.986 0 0 1-.579-1.537l.15-2.282a4.4 4.4 0 0 1-1.336-.918C1.276 6.59.84 5.703.748 4.793c-.095-.95.19-1.804.804-2.42 1.238-1.236 3.445-1.048 4.927.423a.474.474 0 0 1-.67.67C4.701 2.362 3.097 2.169 2.226 3.04c-.41.41-.599.997-.532 1.655.071.694.41 1.376.958 1.924.224.225.473.413.733.564l.122-1.822a1.12 1.12 0 0 1 1.041-1.04l5.127-.338c.043-.004.086-.004.13-.004.528 0 1.03.208 1.403.583zm-.666 2.685c.268-.27.418-.627.418-1.01 0-.382-.15-.74-.418-1.01l-7.09-7.088a1.044 1.044 0 0 0-.737-.304c-.024 0-.048.004-.07.004l-5.128.339a.173.173 0 0 0-.162.162l-.142 2.112c.087.016.173.03.264.039.658.068 1.246-.122 1.655-.532a.474.474 0 1 1 .67.67c-.536.536-1.257.82-2.065.82a3.846 3.846 0 0 1-.587-.051l-.138 2.065c-.02.3.091.592.303.805l7.095 7.093c.268.268.626.418 1.008.418.383 0 .742-.15 1.01-.418z"/></g><g><path fill="none" stroke="#b3b3b3" stroke-miterlimit="20" d="M18.298 11.655a2.369 2.369 0 0 1 .008 3.359l-4.11 4.11a2.372 2.372 0 0 1-1.68.694 2.354 2.354 0 0 1-1.678-.694L3.743 12.03a1.986 1.986 0 0 1-.579-1.537l.15-2.282a4.4 4.4 0 0 1-1.336-.918C1.276 6.59.84 5.703.748 4.793c-.095-.95.19-1.804.804-2.42 1.238-1.236 3.445-1.048 4.927.423a.474.474 0 0 1-.67.67C4.701 2.362 3.097 2.169 2.226 3.04c-.41.41-.599.997-.532 1.655.071.694.41 1.376.958 1.924.224.225.473.413.733.564l.122-1.822a1.12 1.12 0 0 1 1.041-1.04l5.127-.338c.043-.004.086-.004.13-.004.528 0 1.03.208 1.403.583zm-.666 2.685c.268-.27.418-.627.418-1.01 0-.382-.15-.74-.418-1.01l-7.09-7.088a1.044 1.044 0 0 0-.737-.304c-.024 0-.048.004-.07.004l-5.128.339a.173.173 0 0 0-.162.162l-.142 2.112c.087.016.173.03.264.039.658.068 1.246-.122 1.655-.532a.474.474 0 1 1 .67.67c-.536.536-1.257.82-2.065.82a3.846 3.846 0 0 1-.587-.051l-.138 2.065c-.02.3.091.592.303.805l7.095 7.093c.268.268.626.418 1.008.418.383 0 .742-.15 1.01-.418z"/></g></g></svg>