<svg xmlns="http://www.w3.org/2000/svg" width="34" height="34" viewBox="0 0 34 34"><g><g><path fill="#ff7bac" d="M17.027-.043C7.715-.043.167 7.507.167 16.82c0 9.312 7.548 16.862 16.86 16.862 9.313 0 16.862-7.55 16.862-16.861C33.88 7.512 26.335-.031 17.027-.042z"/></g><g><path fill="#fff" d="M22.629 22.83l-1.72-1.721a.305.305 0 0 0-.43 0l-.215.215 2.15 2.15.215-.214a.305.305 0 0 0 0-.43z"/></g><g><path fill="#fff" d="M12.738 13.368a.305.305 0 0 0 0-.43l-1.72-1.72a.311.311 0 0 0-.43 0l-.215.214 2.15 2.151z"/></g><g><path fill="#fff" d="M19.834 21.754l-.475.475a.9.9 0 0 1-.759.26c-1.06-.14-2.818-.916-4.572-2.67s-2.53-3.512-2.672-4.572a.906.906 0 0 1 .261-.76l.476-.474-2.151-2.15-.608.608c-1.799 1.799-.561 5.963 2.759 9.283 3.32 3.32 7.484 4.557 9.283 2.759l.608-.61z"/></g><g><path fill="#fff" d="M20.377 9.212a.608.608 0 0 1-.608-.608V8.3l-3.346 2.142 3.348 2.438-.002-.323c0-.336.272-.608.608-.608h5.17V9.212z"/></g><g><path fill="#fff" d="M22.202 14.382a.609.609 0 0 1-.608.608h-5.17v2.737h5.17c.336 0 .608.272.608.608v.321l3.342-2.435-3.342-2.143z"/></g></g></svg>