<svg xmlns="http://www.w3.org/2000/svg" width="34" height="34" viewBox="0 0 34 34"><g><g><path fill="#22b66e" d="M29.207 5.045a16.652 16.652 0 0 1 .004 23.545c-6.5 6.502-17.042 6.504-23.545.003-6.503-6.5-6.505-17.042-.004-23.545s17.043-6.504 23.545-.003zm-3.205 18.317a.706.706 0 0 0-.002-.997l-3.125-3.13-.002-.002a.705.705 0 0 0-.997.002l-1.77 1.798a1.504 1.504 0 0 1-1.92.167 21.302 21.302 0 0 1-2.886-2.425 21.473 21.473 0 0 1-2.193-2.559 1.492 1.492 0 0 1 .156-1.942l1.831-1.832c.001 0 .002 0 .003-.002a.704.704 0 0 0-.003-.996l-3.118-3.12s-.002 0-.003-.002a.705.705 0 0 0-.996.002l-.988.988a4.438 4.438 0 0 0-1.11 4.534 15.533 15.533 0 0 0 1.898 3.841 19.925 19.925 0 0 0 2.525 3.063 19.782 19.782 0 0 0 3.38 2.725 14.723 14.723 0 0 0 4.284 1.92 4.438 4.438 0 0 0 4.19-1.199L26 23.36v.005l.002-.002z"/></g></g></svg>