<svg xmlns="http://www.w3.org/2000/svg" width="19" height="20" viewBox="0 0 19 20"><g><g><path fill="#fff" d="M12.54 10.62H.454a.625.625 0 0 1 0-1.25H12.54a.625.625 0 1 1 0 1.25z"/></g><g><path fill="#fff" d="M9.206 13.954a.625.625 0 0 1-.442-1.068l2.893-2.892-2.893-2.893a.625.625 0 1 1 .885-.884l3.334 3.335a.624.624 0 0 1 0 .883L9.65 13.77a.62.62 0 0 1-.443.185z"/></g><g><path fill="#fff" d="M9.832 19.163a9.12 9.12 0 0 1-8.535-5.814.624.624 0 1 1 1.164-.457 7.878 7.878 0 0 0 7.37 5.021c4.367 0 7.919-3.553 7.919-7.918 0-4.366-3.552-7.919-7.918-7.919a7.879 7.879 0 0 0-7.37 5.022.625.625 0 1 1-1.164-.457A9.122 9.122 0 0 1 9.832.826C14.887.826 19 4.94 19 9.996c0 5.054-4.113 9.167-9.168 9.167z"/></g></g></svg>