<svg xmlns="http://www.w3.org/2000/svg" width="15" height="16" viewBox="0 0 15 16"><g><g><path fill="#2196f3" d="M10.378 9.77a4.601 4.601 0 0 1-1.906-.865.42.42 0 0 0-.587.078l-.42.549a5.885 5.885 0 0 1-1.69-2.557l.67-.17a.42.42 0 0 0 .302-.509 4.591 4.591 0 0 1-.05-2.093.418.418 0 0 0-.326-.493l-1.51-.308a.417.417 0 0 0-.492.326c-.782 3.834 1.7 7.588 5.534 8.37.226.046.447-.1.493-.326l.308-1.51a.418.418 0 0 0-.326-.492z"/></g><g><path fill="#2196f3" d="M13.569 7.75c0 3.364-2.737 6.1-6.1 6.1a6.106 6.106 0 0 1-6.1-6.1c0-3.364 2.736-6.1 6.1-6.1 3.363 0 6.1 2.736 6.1 6.1zm-13.6 0a7.5 7.5 0 1 0 15 0 7.5 7.5 0 0 0-15 0z"/></g></g></svg>