<svg xmlns="http://www.w3.org/2000/svg" width="34" height="34" viewBox="0 0 34 34"><g><g opacity=".5"><g opacity=".5"><path fill="#f2f2f2" d="M11.687 11.297H22.59l-5.452 4.672z"/></g><g opacity=".5"><path fill="#f2f2f2" d="M21.238 11.797l-4.1 3.514-4.1-3.514zm2.703-1H10.335l6.803 5.831z"/></g></g><g><path fill="#f7931e" d="M17.138 18.023a.6.6 0 0 1-.392-.145L9.31 11.503v11.338h15.658V11.503l-7.437 6.375a.6.6 0 0 1-.392.145z"/></g><g><path fill="#f7931e" d="M17.138-.043C26.446-.032 33.99 7.511 34 16.82c0 9.312-7.55 16.862-16.862 16.862-9.313 0-16.862-7.55-16.862-16.862 0-9.313 7.55-16.862 16.862-16.862zm9.033 10.237a.603.603 0 0 0-.602-.602H8.707a.603.603 0 0 0-.602.602v13.25c0 .332.27.602.602.602H25.57c.332 0 .602-.27.602-.603z"/></g></g></svg>