<svg xmlns="http://www.w3.org/2000/svg" width="81.33" height="9.33" viewBox="0 0 122 14"><defs><radialGradient id="ff0na" cx="37.38" cy="13.78" r="14.61" gradientUnits="userSpaceOnUse"><stop offset="0" stop-color="#ffc200"/><stop offset=".35" stop-color="#ffc200"/><stop offset="1" stop-color="#ff953a"/></radialGradient><radialGradient id="ff0nb" cx="36.27" cy="17.4" r="21.13" gradientUnits="userSpaceOnUse"><stop offset="0" stop-color="#ffc200"/><stop offset=".35" stop-color="#ffc200"/><stop offset="1" stop-color="#ff953a"/></radialGradient><radialGradient id="ff0nc" cx="55.63" cy="13.78" r="14.61" gradientUnits="userSpaceOnUse"><stop offset="0" stop-color="#ffc200"/><stop offset=".35" stop-color="#ffc200"/><stop offset="1" stop-color="#ff953a"/></radialGradient><radialGradient id="ff0nd" cx="54.52" cy="17.4" r="21.13" gradientUnits="userSpaceOnUse"><stop offset="0" stop-color="#ffc200"/><stop offset=".35" stop-color="#ffc200"/><stop offset="1" stop-color="#ff953a"/></radialGradient><radialGradient id="ff0ne" cx="73.89" cy="13.78" r="14.61" gradientUnits="userSpaceOnUse"><stop offset="0" stop-color="#ffc200"/><stop offset=".35" stop-color="#ffc200"/><stop offset="1" stop-color="#ff953a"/></radialGradient><radialGradient id="ff0nf" cx="72.78" cy="17.4" r="21.13" gradientUnits="userSpaceOnUse"><stop offset="0" stop-color="#ffc200"/><stop offset=".35" stop-color="#ffc200"/><stop offset="1" stop-color="#ff953a"/></radialGradient><radialGradient id="ff0ng" cx="92.15" cy="13.78" r="14.61" gradientUnits="userSpaceOnUse"><stop offset="0" stop-color="#ffc200"/><stop offset=".35" stop-color="#ffc200"/><stop offset="1" stop-color="#ff953a"/></radialGradient><radialGradient id="ff0nh" cx="91.03" cy="17.4" r="21.13" gradientUnits="userSpaceOnUse"><stop offset="0" stop-color="#ffc200"/><stop offset=".35" stop-color="#ffc200"/><stop offset="1" stop-color="#ff953a"/></radialGradient><radialGradient id="ff0ni" cx="110.4" cy="13.78" r="14.61" gradientUnits="userSpaceOnUse"><stop offset="0" stop-color="#ffc200"/><stop offset=".35" stop-color="#ffc200"/><stop offset="1" stop-color="#ff953a"/></radialGradient><radialGradient id="ff0nj" cx="109.29" cy="17.4" r="21.13" gradientUnits="userSpaceOnUse"><stop offset="0" stop-color="#ffc200"/><stop offset=".35" stop-color="#ffc200"/><stop offset="1" stop-color="#ff953a"/></radialGradient><radialGradient id="ff0nk" cx="110.4" cy="13.78" r="14.61" gradientUnits="userSpaceOnUse"><stop offset="0" stop-color="#dbdbdb"/><stop offset=".35" stop-color="#dbdbdb"/><stop offset=".99" stop-color="#b3b3b3"/><stop offset="1" stop-color="#b3b3b3"/></radialGradient><radialGradient id="ff0nl" cx="109.29" cy="17.4" r="21.13" gradientUnits="userSpaceOnUse"><stop offset="0" stop-color="#dbdbdb"/><stop offset=".35" stop-color="#dbdbdb"/><stop offset=".99" stop-color="#b3b3b3"/><stop offset="1" stop-color="#b3b3b3"/></radialGradient></defs><g><g><g><text dominant-baseline="text-before-edge" transform="translate(0 -2)"><tspan fill="#383838" font-family="'Roboto','Roboto-Regular'" font-size="15.22">4.5</tspan></text></g></g><g><path fill="url(#ff0na)" d="M41.658.558l-1.646 3.127c-.198.375-.703.739-1.123.807l-3.488.57c-.419.068-.52.373-.223.678l2.466 2.531c.296.305.487.898.421 1.319l-.536 3.492c-.065.42.194.611.575.423l3.17-1.564c.382-.187 1.003-.185 1.384.007l3.155 1.59c.38.191.641.003.58-.418l-.506-3.497c-.061-.42.134-1.013.433-1.313l2.488-2.511c.299-.303.2-.609-.218-.681l-3.483-.599c-.419-.073-.922-.44-1.116-.817L42.373.56c-.098-.19-.227-.284-.357-.284-.129 0-.259.094-.358.282z"/></g><g opacity=".5"><g opacity=".5"><path fill="url(#ff0nb)" d="M42.218.64l1.619 3.14c.221.429.766.828 1.24.909l3.484.6c.132.023.222.073.241.136.021.062-.023.157-.118.252l-2.487 2.51c-.339.341-.55.984-.481 1.461l.506 3.497c.017.117.003.21-.037.257-.009.01-.033.036-.097.036a.437.437 0 0 1-.196-.056l-3.156-1.59a1.775 1.775 0 0 0-.778-.162c-.285 0-.555.057-.761.157l-3.168 1.562a.458.458 0 0 1-.195.053c-.066 0-.091-.026-.099-.036-.04-.047-.053-.14-.035-.258l.537-3.493c.073-.475-.133-1.119-.469-1.464l-2.466-2.532c-.094-.096-.136-.191-.116-.252.021-.063.111-.113.244-.135l3.488-.569c.475-.076 1.023-.473 1.248-.897L41.812.638c.062-.117.138-.189.204-.189.065 0 .141.072.202.191zm-.56-.082l-1.646 3.127c-.198.375-.703.739-1.123.807l-3.487.57c-.42.068-.521.373-.224.678l2.466 2.531c.296.305.487.898.421 1.319l-.536 3.492c-.048.31.081.495.305.495a.607.607 0 0 0 .27-.072l3.17-1.564c.188-.092.436-.138.684-.138.254 0 .508.049.7.145l3.155 1.59c.102.05.194.074.275.074.222 0 .35-.182.306-.492l-.507-3.497c-.061-.42.134-1.013.433-1.313l2.488-2.511c.298-.303.201-.609-.218-.681l-3.483-.599c-.419-.073-.921-.44-1.116-.818L42.373.56c-.099-.189-.227-.284-.357-.284-.13 0-.259.092-.358.282z"/></g></g><g><path fill="url(#ff0nc)" d="M59.914.558l-1.646 3.127c-.198.375-.703.739-1.123.807l-3.487.57c-.419.068-.521.373-.224.678L55.9 8.271c.297.305.486.898.422 1.319l-.537 3.492c-.065.42.194.611.576.423l3.169-1.564c.381-.187 1.004-.185 1.384.007l3.156 1.59c.38.191.641.003.58-.418l-.507-3.497c-.061-.42.134-1.013.433-1.313l2.487-2.511c.299-.303.202-.609-.217-.681l-3.483-.599c-.419-.073-.921-.44-1.116-.817L60.628.56c-.097-.19-.226-.284-.356-.284-.129 0-.259.094-.358.282z"/></g><g opacity=".5"><g opacity=".5"><path fill="url(#ff0nd)" d="M60.475.64l1.617 3.14c.221.429.766.828 1.241.909l3.483.6c.132.023.223.073.243.136.02.062-.025.157-.119.252l-2.487 2.51c-.339.341-.55.984-.482 1.461l.507 3.497c.017.117.002.21-.038.257-.008.01-.032.036-.097.036a.447.447 0 0 1-.196-.056l-3.155-1.59a1.782 1.782 0 0 0-.778-.162c-.285 0-.554.057-.761.157l-3.168 1.562a.462.462 0 0 1-.195.053c-.067 0-.091-.026-.099-.036-.04-.047-.053-.14-.035-.258l.537-3.493c.073-.475-.133-1.119-.469-1.464l-2.466-2.532c-.094-.096-.137-.191-.117-.252.021-.063.113-.113.244-.135l3.488-.569c.475-.076 1.024-.473 1.248-.897L60.068.638c.062-.117.138-.189.203-.189.066 0 .142.072.204.191zm-.561-.082l-1.646 3.127c-.198.375-.704.739-1.122.807l-3.488.57c-.419.068-.521.373-.224.678L55.9 8.271c.297.305.486.898.422 1.319l-.537 3.492c-.048.31.081.495.305.495a.614.614 0 0 0 .271-.072l3.169-1.564a1.61 1.61 0 0 1 .684-.138c.254 0 .508.049.7.145l3.156 1.59c.101.05.193.074.273.074.222 0 .351-.182.307-.492l-.507-3.497c-.061-.42.134-1.013.433-1.313l2.487-2.511c.299-.303.202-.609-.218-.681l-3.483-.599c-.418-.073-.92-.44-1.115-.818L60.628.56c-.098-.189-.227-.284-.357-.284-.129 0-.258.092-.357.282z"/></g></g><g><path fill="url(#ff0ne)" d="M78.17.558l-1.646 3.127c-.199.375-.704.739-1.123.807l-3.488.57c-.419.068-.52.373-.223.678l2.465 2.531c.297.305.486.898.423 1.319l-.538 3.492c-.065.42.195.611.576.423l3.17-1.564c.381-.187 1.003-.185 1.383.007l3.157 1.59c.379.191.64.003.579-.418l-.507-3.497c-.06-.42.135-1.013.434-1.313l2.487-2.511c.299-.303.202-.609-.218-.681l-3.483-.599c-.418-.073-.92-.44-1.116-.817L78.884.56c-.098-.19-.227-.284-.357-.284-.129 0-.258.094-.357.282z"/></g><g opacity=".5"><g opacity=".5"><path fill="url(#ff0nf)" d="M78.73.64l1.619 3.14c.221.429.765.828 1.24.909l3.483.6c.132.023.223.073.242.136.02.062-.024.157-.118.252l-2.488 2.51c-.338.341-.549.984-.48 1.461l.506 3.497c.017.117.003.21-.038.257-.008.01-.031.036-.097.036a.447.447 0 0 1-.196-.056l-3.155-1.59a1.779 1.779 0 0 0-.778-.162c-.285 0-.555.057-.761.157l-3.169 1.562a.454.454 0 0 1-.194.053c-.067 0-.091-.026-.099-.036-.04-.047-.054-.14-.036-.258l.538-3.493c.073-.475-.134-1.119-.47-1.464l-2.465-2.532c-.093-.096-.137-.191-.116-.252.02-.063.112-.113.243-.135l3.488-.569c.475-.076 1.024-.473 1.248-.897L78.323.638c.062-.117.139-.189.204-.189.066 0 .142.072.203.191zm-.56-.082l-1.646 3.127c-.198.375-.703.739-1.123.807l-3.488.57c-.419.068-.519.373-.223.678l2.466 2.531c.297.305.486.898.422 1.319l-.538 3.492c-.047.31.082.495.306.495a.607.607 0 0 0 .27-.072l3.17-1.564a1.61 1.61 0 0 1 .684-.138c.254 0 .508.049.699.145l3.156 1.59c.102.05.194.074.274.074.222 0 .351-.182.306-.492l-.507-3.497c-.06-.42.135-1.013.434-1.313l2.487-2.511c.299-.303.202-.609-.217-.681l-3.483-.599c-.419-.073-.921-.44-1.117-.818L78.884.56c-.098-.189-.227-.284-.357-.284-.129 0-.258.092-.357.282z"/></g></g><g><path fill="url(#ff0ng)" d="M96.426.558L94.78 3.685c-.197.375-.703.739-1.123.807l-3.488.57c-.419.068-.52.373-.223.678l2.466 2.531c.296.305.486.898.421 1.319l-.536 3.492c-.065.42.194.611.575.423l3.17-1.564c.381-.187 1.004-.185 1.384.007l3.155 1.59c.38.191.641.003.58-.418l-.507-3.497c-.06-.42.135-1.013.433-1.313l2.488-2.511c.299-.303.201-.609-.218-.681l-3.482-.599c-.42-.073-.921-.44-1.116-.817L97.14.56c-.098-.19-.227-.284-.357-.284-.129 0-.258.094-.357.282z"/></g><g opacity=".5"><g opacity=".5"><path fill="url(#ff0nh)" d="M96.986.64l1.618 3.14c.221.429.766.828 1.241.909l3.483.6c.132.023.222.073.242.136.021.062-.024.157-.119.252l-2.486 2.51c-.34.341-.551.984-.482 1.461l.507 3.497c.016.117.003.21-.038.257-.008.01-.032.036-.097.036a.436.436 0 0 1-.195-.056l-3.157-1.59a1.77 1.77 0 0 0-.777-.162 1.78 1.78 0 0 0-.761.157l-3.169 1.562a.454.454 0 0 1-.194.053c-.067 0-.091-.026-.099-.036-.041-.047-.053-.14-.036-.258l.537-3.493c.074-.475-.132-1.119-.468-1.464L90.07 5.619c-.093-.096-.137-.191-.117-.252.021-.063.112-.113.244-.135l3.488-.569c.476-.076 1.023-.473 1.248-.897L96.579.638c.062-.117.138-.189.204-.189.066 0 .141.072.203.191zm-.56-.082L94.78 3.685c-.197.375-.703.739-1.123.807l-3.488.57c-.419.068-.52.373-.223.678l2.466 2.531c.296.305.486.898.421 1.319l-.537 3.492c-.048.31.081.495.306.495.08 0 .17-.022.27-.072l3.17-1.564c.188-.092.436-.138.684-.138.254 0 .507.049.7.145l3.156 1.59c.101.05.193.074.273.074.222 0 .351-.182.306-.492l-.507-3.497c-.06-.42.135-1.013.433-1.313l2.488-2.511c.299-.303.201-.609-.218-.681l-3.482-.599c-.419-.073-.921-.44-1.117-.818L97.14.56c-.098-.189-.227-.284-.357-.284-.129 0-.259.092-.357.282z"/></g></g><g><path fill="url(#ff0ni)" d="M114.682.558l-1.647 3.127c-.198.375-.702.739-1.123.807l-3.487.57c-.42.068-.52.373-.223.678l2.465 2.531c.297.305.486.898.422 1.319l-.538 3.492c-.064.42.196.611.576.423l3.17-1.564c.382-.187 1.004-.185 1.384.007l3.156 1.59c.38.191.641.003.579-.418l-.506-3.497c-.061-.42.135-1.013.434-1.313l2.487-2.511c.299-.303.201-.609-.219-.681l-3.482-.599c-.42-.073-.921-.44-1.116-.817L115.395.56c-.097-.19-.226-.284-.356-.284-.129 0-.259.094-.357.282z"/></g><g opacity=".5"><g opacity=".5"><path fill="url(#ff0nj)" d="M115.242.64l1.618 3.14c.221.429.766.828 1.241.909l3.482.6c.132.023.223.073.243.136.02.062-.024.157-.118.252l-2.488 2.51c-.339.341-.551.984-.481 1.461l.506 3.497c.017.117.004.21-.037.257-.008.01-.032.036-.097.036a.44.44 0 0 1-.196-.056l-3.156-1.59a1.775 1.775 0 0 0-.778-.162c-.285 0-.555.057-.76.157l-3.169 1.562a.455.455 0 0 1-.195.053c-.066 0-.091-.026-.098-.036-.041-.047-.054-.14-.036-.258l.537-3.493c.073-.475-.133-1.119-.469-1.464l-2.466-2.532c-.093-.096-.137-.191-.116-.252.02-.063.112-.113.244-.135l3.488-.569c.475-.076 1.023-.473 1.248-.897l1.645-3.128c.062-.117.139-.189.205-.189.065 0 .141.072.203.191zm-.561-.082l-1.646 3.127c-.198.375-.702.739-1.122.807l-3.488.57c-.42.068-.52.373-.224.678l2.466 2.531c.296.305.486.898.422 1.319l-.537 3.492c-.048.31.081.495.305.495.08 0 .171-.022.27-.072l3.17-1.564c.189-.092.437-.138.684-.138.254 0 .508.049.7.145l3.156 1.59c.101.05.193.074.274.074.222 0 .35-.182.306-.492l-.507-3.497c-.06-.42.134-1.013.434-1.313l2.487-2.511c.299-.303.201-.609-.218-.681l-3.483-.599c-.42-.073-.921-.44-1.116-.818L115.396.56c-.098-.189-.228-.284-.357-.284-.129 0-.259.092-.358.282z"/></g></g><g><path fill="url(#ff0nk)" d="M115.052 11.815c.229.007.455.045.629.133l3.156 1.59c.38.191.641.003.579-.418l-.506-3.497c-.061-.42.135-1.013.434-1.313l2.487-2.511c.299-.303.201-.609-.219-.681l-3.482-.599c-.42-.073-.921-.44-1.116-.817L115.395.56c-.093-.182-.218-.243-.343-.244z"/></g><g opacity=".5"><g opacity=".5"><path fill="url(#ff0nl)" d="M121.831 5.799c.299-.303.201-.609-.218-.681l-3.483-.599c-.42-.073-.921-.44-1.116-.818L115.396.56c-.095-.182-.218-.273-.344-.28v.176c.062.008.133.072.19.184l1.618 3.14c.221.429.766.828 1.241.909l3.482.6c.132.023.223.073.243.136.02.062-.024.157-.118.252l-2.488 2.51c-.339.341-.551.984-.481 1.461l.506 3.497c.017.117.004.21-.037.257-.008.01-.032.036-.097.036a.44.44 0 0 1-.196-.056l-3.156-1.59a1.753 1.753 0 0 0-.707-.155v.173c.229.007.455.05.629.138l3.156 1.59c.101.05.193.074.274.074.222 0 .35-.182.306-.492l-.507-3.497c-.06-.42.134-1.013.434-1.313z"/></g></g></g></svg>