<svg fill="none" height="134" viewBox="0 0 194 134" width="194" xmlns="http://www.w3.org/2000/svg" xmlns:xlink="http://www.w3.org/1999/xlink"><linearGradient id="a"><stop offset="0" stop-color="#f2b600"/><stop offset="1" stop-color="#ffd659"/></linearGradient><linearGradient id="b" gradientUnits="userSpaceOnUse" x1="131" x2="89.6789" xlink:href="#a" y1="82" y2="44.6391"/><linearGradient id="c" gradientUnits="userSpaceOnUse" x1="138" x2="58" xlink:href="#a" y1="34.5" y2="34.5"/><radialGradient id="d" cx="0" cy="0" gradientTransform="matrix(34.49999013 3.99999856 -6.45649344 55.68726002 48.5 58)" gradientUnits="userSpaceOnUse" r="1"><stop offset="0" stop-color="#ffd659"/><stop offset="1" stop-color="#f2b600"/></radialGradient><mask id="e" height="19" maskUnits="userSpaceOnUse" width="14" x="91" y="99"><path d="m91 99h14v19h-14z" fill="#ffc600"/></mask><mask id="f" height="34" maskUnits="userSpaceOnUse" width="20" x="127" y="45"><path d="m130 76c7.732 0 14-6.268 14-14s-6.268-14-14-14" fill="none" stroke="#f2b600" stroke-linecap="round" stroke-width="6"/></mask><ellipse cx="98" cy="127" fill="#f2f5f7" rx="40" ry="7"/><path d="m91 99h14v19h-14z" fill="#ffc600"/><g mask="url(#e)"><path d="m67 43h68v33c0 16.5685-13.431 30-30 30h-8c-16.5685 0-30-13.4315-30-30z" fill="#222426" opacity=".1"/></g><path d="m76 124.558c0-3.989 3.5449-7.147 7.5276-6.924 3.5282.198 8.3295.366 14.4724.366 6.143 0 10.944-.168 14.472-.366 3.983-.223 7.528 2.935 7.528 6.924 0 .796-.646 1.442-1.442 1.442h-41.1159c-.7965 0-1.4421-.646-1.4421-1.442z" fill="#f2b600"/><ellipse cx="98" cy="125" fill="#f2b600" rx="22" ry="3"/><path d="m130 76c7.732 0 14-6.268 14-14s-6.268-14-14-14" stroke="#f2b600" stroke-linecap="round" stroke-width="6"/><g mask="url(#f)"><path clip-rule="evenodd" d="m106 99h1.289c16.569 0 30-13.4315 30-30v-30h-8.999v31c0 13.9031-9.457 25.5972-22.29 29z" fill="#222426" fill-rule="evenodd" opacity=".1"/></g><path d="m64 40h68v33c0 16.5685-13.431 30-30 30h-8c-16.5685 0-30-13.4315-30-30z" fill="url(#b)"/><path d="m64 40h68v4l-68-2z" fill="#222426" opacity=".1"/><path clip-rule="evenodd" d="m88.2619 81.6802c2.7814 2.8799 6.0274 4.3198 9.7381 4.3198 3.711 0 6.957-1.4399 9.738-4.3198.813-.8421 1.262-1.9245 1.262-3.0451v-.5177c0-1.1694-1.043-2.1174-2.329-2.1174h-17.3418c-1.2864 0-2.3292.948-2.3292 2.1174v.5177c0 1.1206.4485 2.203 1.2619 3.0451z" fill="#475059" fill-rule="evenodd"/><path clip-rule="evenodd" d="m103.462 82.6214c-1.571.8718-3.447 1.3786-5.4621 1.3786-2.0154 0-3.8916-.5068-5.4618-1.3787 1.2829-1.5982 3.2528-2.6213 5.4617-2.6213 2.2092 0 4.1792 1.0232 5.4622 2.6214z" fill="#ff5967" fill-rule="evenodd"/><rect fill="url(#c)" height="11" rx="4" width="80" x="58" y="29"/><circle cx="84" cy="61" fill="#fff" r="8"/><circle cx="112" cy="61" fill="#fff" r="8"/><circle cx="113" cy="60" fill="#475059" r="3"/><circle cx="85" cy="60" fill="#475059" r="3"/><path d="m66 76c-7.732 0-14-6.268-14-14s6.268-14 14-14" stroke="url(#d)" stroke-linecap="round" stroke-width="6"/><g clip-rule="evenodd" fill-rule="evenodd"><path d="m168.723 82.083 8.665 6-11.446 4.1661z" fill="#ffd659"/><path d="m19.5539 92.8225-4.1705-8.8229 11.1071 1.9585z" fill="#4da6ff"/><path d="m188.413 51.6465-5.413-7.6461h10.827z" fill="#4da6ff"/></g><path d="m6.99265 50.9912c3.86195 0 6.99265-3.132 6.99265-6.9956s-3.1307-6.9956-6.99265-6.9956c-3.86194 0-6.99265 3.132-6.99265 6.9956s3.13071 6.9956 6.99265 6.9956z" fill="#8dd941"/><path clip-rule="evenodd" d="m31.2881 6 7.4232 4.2858-4.2876 7.4264-7.4232-4.2858z" fill="#ff9e59" fill-rule="evenodd"/><path d="m150.316 12.6372c3.488 0 6.316-2.82892 6.316-6.31859s-2.828-6.31861-6.316-6.31861-6.316 2.82894-6.316 6.31861 2.828 6.31859 6.316 6.31859z" fill="#ff5967"/></svg>
